<svg width="31" height="32" viewBox="0 0 31 32" fill="none" xmlns="http://www.w3.org/2000/svg">
<path d="M9.85116 29.4401L9.65594 29.3548L9.45916 29.4365L5.53013 31.0674C5.64666 30.7935 5.77468 30.4917 5.90273 30.1879C6.11657 29.6806 6.33128 29.1661 6.49284 28.7672C6.57342 28.5682 6.64207 28.3949 6.69106 28.2644C6.71533 28.1998 6.73656 28.141 6.75233 28.0929C6.76007 28.0693 6.76836 28.0427 6.77524 28.0163L6.77569 28.0146C6.77939 28.0008 6.79642 27.9371 6.79642 27.8634V27.6237L6.60955 27.4736C3.18342 24.7214 0.973633 20.4096 0.973633 15.5569C0.973633 7.22388 7.48253 0.5 15.4736 0.5C23.4647 0.5 29.9736 7.22388 29.9736 15.5569C29.9736 23.89 23.4647 30.6138 15.4736 30.6138C13.4793 30.6138 11.5798 30.196 9.85116 29.4401Z" stroke="#FBF8F8"/>
</svg>
